<svg id="Layer_1" data-name="Layer 1" xmlns="http://www.w3.org/2000/svg" viewBox="0 0 88 34"><defs><style>.cls-1{fill:#fff;fill-rule:evenodd;}</style></defs><title>Artboard 1</title><path class="cls-1" d="M88,11.33A7.23,7.23,0,0,1,87,14.11a5.64,5.64,0,0,1-1.72,1.78,6.78,6.78,0,0,1-2.34.95,13.32,13.32,0,0,1-2.81.28h-3l-1,7.36H72L74.59,5.6h7a13.19,13.19,0,0,1,2.74.27,5.41,5.41,0,0,1,2.14.92,3.9,3.9,0,0,1,1.31,1.76A5.63,5.63,0,0,1,88,11.33Zm-4.49-1.15a1.76,1.76,0,0,0-.77-.68,3.25,3.25,0,0,0-1.12-.31c-.42,0-.82-.07-1.21-.07H78.24l-.61,4.48H80.4a5,5,0,0,0,1.09-.11,3.29,3.29,0,0,0,1-.36,2.33,2.33,0,0,0,.78-.69,2.4,2.4,0,0,0,.4-1.11A1.63,1.63,0,0,0,83.47,10.18ZM64.84,24.48,66,16.32H57.92l-1.15,8.16H52.62L55.25,5.6h4.16l-1,7h8.07l1-7h4.15L69,24.48ZM52.29,14.11a5.53,5.53,0,0,1-1.72,1.78,6.78,6.78,0,0,1-2.34.95,13.32,13.32,0,0,1-2.81.28h-3l-1,7.36H37.22L39.85,5.6h7a13.16,13.16,0,0,1,2.73.27,5.35,5.35,0,0,1,2.14.92A3.9,3.9,0,0,1,53,8.55a5.63,5.63,0,0,1,.18,2.78A7.23,7.23,0,0,1,52.29,14.11Zm-3.55-3.93A1.84,1.84,0,0,0,48,9.5a3.25,3.25,0,0,0-1.12-.31c-.41,0-.82-.07-1.21-.07H43.5l-.61,4.48h2.77a4.92,4.92,0,0,0,1.09-.11,3.35,3.35,0,0,0,1-.36,2.26,2.26,0,0,0,1.17-1.8A1.68,1.68,0,0,0,48.74,10.18ZM38.45,27.51l.67,2.31h-.47l-.14-.53h-1l-.28.53h-.46l1.33-2.31Zm0,1.43L38.19,28l-.49.94ZM25,30.05a17.18,17.18,0,0,0,.57-1.85L26,26.48s0-.09,0-.11a.08.08,0,0,0-.07,0,1.86,1.86,0,0,0-1.4.52c-.27.24-1,1-1,1.4-.08-3.37-.18-6.62-1.86-9.64a.38.38,0,0,0-.12-.16c-.31-.24-.69.17-.76.44-.18.68.1.94.26,2a11.48,11.48,0,0,1,.23,2.92c-.05.32,0,1-.24,1.19a7.73,7.73,0,0,1-.35-1.6,10.65,10.65,0,0,0-.43-1.59c-.17-.47-.42-.9-.59-1.37-.23-.63-.32-1.31-.55-2a1.4,1.4,0,0,0-.44-.7.59.59,0,0,0-.77,0,.86.86,0,0,0-.11.71c.05.34.12.68.19,1,.24,1.11.76,3.61,1,4.72-.53-1.21-1.34-3.82-1.86-5a1.42,1.42,0,0,0-.3-.52.52.52,0,0,0-.55-.15c-.31.12-.33.55-.29.88.15,1.18.53,2.3.72,3.47s.34,2.06.5,3.09l-.48.37a19.24,19.24,0,0,0-1.57-2.51,18,18,0,0,1-1.4-2.54s0-.06-.05-.07a.1.1,0,0,0-.09,0c-.75.36-.56,1.23-.31,1.85C14,24.71,14.92,26.29,15,28a17.46,17.46,0,0,1-.2,2.79,7.91,7.91,0,0,0,.2,2.7,16.62,16.62,0,0,1-4.48-32c-.23,1.07-.42,2.15-.57,3.23a11.57,11.57,0,0,0-.17,1.3c0,.66.28,1.33.28,2a1.8,1.8,0,0,0,.34,1c.27.29.72.4.92.74s.09.83.35,1.13.62.24.83.49a1.07,1.07,0,0,1,.19.42,42.2,42.2,0,0,0,1.63,4.79c.39-.18.82-.43.87-.86a1.17,1.17,0,0,0-.06-.45,14.94,14.94,0,0,1-.63-2.45c0-.05-.28-3.5-.28-3.5.3-.28.44,0,.46.32a12.41,12.41,0,0,0,.25,2c.33,1.34.91,2.59,1.25,3.93.09.32.25.73.58.73a.51.51,0,0,0,.42-.34,1.46,1.46,0,0,0,.07-.55c0-.3,0-.6,0-.9-.12-1.81-.33-3.57-.33-5.39q0-1.59,0-3.18A3.07,3.07,0,0,1,18,4.57c.75-.41,1.73.5,2.18,1a7,7,0,0,0,1.46,1.37,2.85,2.85,0,0,0,1.54.38,1,1,0,0,0,.61-.21.44.44,0,0,0,.07-.59.91.91,0,0,0-.23-.15,3.31,3.31,0,0,1-.92-.83L21.46,4a8.38,8.38,0,0,1-1-1.28c-.13-.22-.23-.44-.35-.65-.41-.69-1.09-1-1.59-1.62A16.62,16.62,0,0,1,24,31.87C24.28,31.25,24.75,30.69,25,30.05Zm21.25-2.27a1.44,1.44,0,0,1,.42-.24,1.39,1.39,0,0,1,.5-.09,1.53,1.53,0,0,1,.49.07.81.81,0,0,1,.38.22l-.35.31a.61.61,0,0,0-.24-.17.88.88,0,0,0-.33-.06.72.72,0,0,0-.33.07,1,1,0,0,0-.28.17,1.35,1.35,0,0,0-.2.27,1.09,1.09,0,0,0-.1.32,1.26,1.26,0,0,0,0,.34.56.56,0,0,0,.12.27.58.58,0,0,0,.23.18.64.64,0,0,0,.31.07,1.39,1.39,0,0,0,.3,0,.88.88,0,0,0,.26-.09l.08-.55h-.47l.05-.37H48l-.16,1.18a2.25,2.25,0,0,1-1,.23,1.21,1.21,0,0,1-.48-.09.88.88,0,0,1-.35-.24,1,1,0,0,1-.2-.38,1.14,1.14,0,0,1,0-.49,1.61,1.61,0,0,1,.16-.51A1.3,1.3,0,0,1,46.25,27.78Zm10.35-.27-.06.37H55.43l-.08.57h1.06l0,.37H55.3l-.09.63h1.17l-.05.37H54.74l.33-2.31Zm7.49,0L65,29.23h0l.24-1.72h.41l-.32,2.31h-.52l-.9-1.77h0l-.25,1.77h-.41l.32-2.31Zm8.7.27a1.76,1.76,0,0,1,.42-.24,1.44,1.44,0,0,1,.51-.09,1.16,1.16,0,0,1,.42.08.82.82,0,0,1,.33.29l-.35.23a.58.58,0,0,0-.22-.18.59.59,0,0,0-.23-.05.8.8,0,0,0-.34.07,1,1,0,0,0-.27.17,1.05,1.05,0,0,0-.2.27.86.86,0,0,0-.1.32.77.77,0,0,0,0,.34.56.56,0,0,0,.12.27.55.55,0,0,0,.22.18.66.66,0,0,0,.32.07.58.58,0,0,0,.28-.07,1,1,0,0,0,.28-.21l.3.24a1,1,0,0,1-.42.31,1.24,1.24,0,0,1-.5.1,1.28,1.28,0,0,1-.48-.09,1,1,0,0,1-.35-.24,1,1,0,0,1-.19-.38,1.31,1.31,0,0,1,0-.49,1.4,1.4,0,0,1,.17-.51A1.45,1.45,0,0,1,72.79,27.78Zm8.74-.27.44.92.7-.92h.49l-1,1.32-.14,1h-.41l.14-1L81,27.51Z"/></svg>